<mxfile host="app.diagrams.net" modified="2024-04-22T21:31:13.964Z" agent="Mozilla/5.0 (Windows NT 10.0; Win64; x64) AppleWebKit/537.36 (KHTML, like Gecko) Chrome/124.0.0.0 Safari/537.36 Edg/124.0.0.0" etag="qUwGMMXA9pTMQgZxKgw4" version="24.2.8" type="github">
  <diagram name="Page-1" id="k2X4lyzzmYV0Y3b_fZku">
    <mxGraphModel dx="2070" dy="2680" grid="1" gridSize="10" guides="1" tooltips="1" connect="1" arrows="1" fold="1" page="1" pageScale="1" pageWidth="850" pageHeight="1100" math="0" shadow="0">
      <root>
        <mxCell id="0" />
        <mxCell id="1" parent="0" />
        <mxCell id="hIYkF4xE6ThtAFWKpGZ0-103" value="" style="group" vertex="1" connectable="0" parent="1">
          <mxGeometry x="1140" y="-480" width="550" height="180" as="geometry" />
        </mxCell>
        <mxCell id="hIYkF4xE6ThtAFWKpGZ0-39" value="Editor :" style="swimlane;fontStyle=0;childLayout=stackLayout;horizontal=1;startSize=26;fillColor=none;horizontalStack=0;resizeParent=1;resizeParentMax=0;resizeLast=0;collapsible=1;marginBottom=0;whiteSpace=wrap;html=1;" vertex="1" parent="hIYkF4xE6ThtAFWKpGZ0-103">
          <mxGeometry x="270" y="60" width="250" height="78" as="geometry" />
        </mxCell>
        <mxCell id="hIYkF4xE6ThtAFWKpGZ0-41" value="+ method: savefile () (void)" style="text;strokeColor=none;fillColor=none;align=left;verticalAlign=top;spacingLeft=4;spacingRight=4;overflow=hidden;rotatable=0;points=[[0,0.5],[1,0.5]];portConstraint=eastwest;whiteSpace=wrap;html=1;" vertex="1" parent="hIYkF4xE6ThtAFWKpGZ0-39">
          <mxGeometry y="26" width="250" height="26" as="geometry" />
        </mxCell>
        <mxCell id="hIYkF4xE6ThtAFWKpGZ0-40" value="+ method: openfile() (void)" style="text;strokeColor=none;fillColor=none;align=left;verticalAlign=top;spacingLeft=4;spacingRight=4;overflow=hidden;rotatable=0;points=[[0,0.5],[1,0.5]];portConstraint=eastwest;whiteSpace=wrap;html=1;" vertex="1" parent="hIYkF4xE6ThtAFWKpGZ0-39">
          <mxGeometry y="52" width="250" height="26" as="geometry" />
        </mxCell>
        <mxCell id="hIYkF4xE6ThtAFWKpGZ0-42" value="&lt;span style=&quot;font-weight: var(--cib-type-subtitle2-stronger-font-weight); font-size: 16px; line-height: var(--cib-type-subtitle2-stronger-line-height); font-variation-settings: var(--cib-type-subtitle2-stronger-font-variation-settings); color: rgb(17, 17, 17); font-family: -apple-system, Roboto, SegoeUI, &amp;quot;Segoe UI&amp;quot;, &amp;quot;Helvetica Neue&amp;quot;, Helvetica, &amp;quot;Microsoft YaHei&amp;quot;, &amp;quot;Meiryo UI&amp;quot;, Meiryo, &amp;quot;Arial Unicode MS&amp;quot;, sans-serif; text-align: start; background-color: rgb(247, 247, 247);&quot;&gt;attributes&lt;/span&gt;&lt;span style=&quot;color: rgb(17, 17, 17); font-family: -apple-system, Roboto, SegoeUI, &amp;quot;Segoe UI&amp;quot;, &amp;quot;Helvetica Neue&amp;quot;, Helvetica, &amp;quot;Microsoft YaHei&amp;quot;, &amp;quot;Meiryo UI&amp;quot;, Meiryo, &amp;quot;Arial Unicode MS&amp;quot;, sans-serif; font-size: 16px; text-align: start; background-color: rgb(247, 247, 247);&quot;&gt;&amp;nbsp;&lt;/span&gt;" style="swimlane;fontStyle=0;childLayout=stackLayout;horizontal=1;startSize=26;fillColor=none;horizontalStack=0;resizeParent=1;resizeParentMax=0;resizeLast=0;collapsible=1;marginBottom=0;whiteSpace=wrap;html=1;" vertex="1" parent="hIYkF4xE6ThtAFWKpGZ0-103">
          <mxGeometry x="20" y="60" width="150" height="52" as="geometry" />
        </mxCell>
        <mxCell id="hIYkF4xE6ThtAFWKpGZ0-43" value="+ name: (string)" style="text;strokeColor=none;fillColor=none;align=left;verticalAlign=top;spacingLeft=4;spacingRight=4;overflow=hidden;rotatable=0;points=[[0,0.5],[1,0.5]];portConstraint=eastwest;whiteSpace=wrap;html=1;" vertex="1" parent="hIYkF4xE6ThtAFWKpGZ0-42">
          <mxGeometry y="26" width="150" height="26" as="geometry" />
        </mxCell>
        <mxCell id="hIYkF4xE6ThtAFWKpGZ0-45" value="" style="edgeStyle=orthogonalEdgeStyle;rounded=0;orthogonalLoop=1;jettySize=auto;html=1;entryX=-0.057;entryY=-0.212;entryDx=0;entryDy=0;entryPerimeter=0;" edge="1" parent="hIYkF4xE6ThtAFWKpGZ0-103" source="hIYkF4xE6ThtAFWKpGZ0-43" target="hIYkF4xE6ThtAFWKpGZ0-40">
          <mxGeometry relative="1" as="geometry" />
        </mxCell>
        <mxCell id="hIYkF4xE6ThtAFWKpGZ0-102" value="" style="rounded=0;whiteSpace=wrap;html=1;gradientColor=none;fillColor=none;strokeWidth=2;" vertex="1" parent="hIYkF4xE6ThtAFWKpGZ0-103">
          <mxGeometry width="550" height="180" as="geometry" />
        </mxCell>
        <mxCell id="hIYkF4xE6ThtAFWKpGZ0-105" value="" style="group;fillColor=#5BFF3B;" vertex="1" connectable="0" parent="1">
          <mxGeometry x="740" y="30" width="440" height="160" as="geometry" />
        </mxCell>
        <mxCell id="hIYkF4xE6ThtAFWKpGZ0-17" value="ide app&amp;nbsp;" style="swimlane;fontStyle=0;childLayout=stackLayout;horizontal=1;startSize=26;fillColor=none;horizontalStack=0;resizeParent=1;resizeParentMax=0;resizeLast=0;collapsible=1;marginBottom=0;whiteSpace=wrap;html=1;" vertex="1" parent="hIYkF4xE6ThtAFWKpGZ0-105">
          <mxGeometry x="270" y="41" width="140" height="78" as="geometry" />
        </mxCell>
        <mxCell id="hIYkF4xE6ThtAFWKpGZ0-18" value="+ method: start () (void)" style="text;strokeColor=none;fillColor=none;align=left;verticalAlign=top;spacingLeft=4;spacingRight=4;overflow=hidden;rotatable=0;points=[[0,0.5],[1,0.5]];portConstraint=eastwest;whiteSpace=wrap;html=1;" vertex="1" parent="hIYkF4xE6ThtAFWKpGZ0-17">
          <mxGeometry y="26" width="140" height="26" as="geometry" />
        </mxCell>
        <mxCell id="hIYkF4xE6ThtAFWKpGZ0-19" value="+ method: stop () (void)" style="text;strokeColor=none;fillColor=none;align=left;verticalAlign=top;spacingLeft=4;spacingRight=4;overflow=hidden;rotatable=0;points=[[0,0.5],[1,0.5]];portConstraint=eastwest;whiteSpace=wrap;html=1;" vertex="1" parent="hIYkF4xE6ThtAFWKpGZ0-17">
          <mxGeometry y="52" width="140" height="26" as="geometry" />
        </mxCell>
        <mxCell id="hIYkF4xE6ThtAFWKpGZ0-34" value="&lt;span style=&quot;font-weight: var(--cib-type-subtitle2-stronger-font-weight); font-size: 16px; line-height: var(--cib-type-subtitle2-stronger-line-height); font-variation-settings: var(--cib-type-subtitle2-stronger-font-variation-settings); color: rgb(17, 17, 17); font-family: -apple-system, Roboto, SegoeUI, &amp;quot;Segoe UI&amp;quot;, &amp;quot;Helvetica Neue&amp;quot;, Helvetica, &amp;quot;Microsoft YaHei&amp;quot;, &amp;quot;Meiryo UI&amp;quot;, Meiryo, &amp;quot;Arial Unicode MS&amp;quot;, sans-serif; text-align: start; background-color: rgb(247, 247, 247);&quot;&gt;attributes&lt;/span&gt;&lt;span style=&quot;color: rgb(17, 17, 17); font-family: -apple-system, Roboto, SegoeUI, &amp;quot;Segoe UI&amp;quot;, &amp;quot;Helvetica Neue&amp;quot;, Helvetica, &amp;quot;Microsoft YaHei&amp;quot;, &amp;quot;Meiryo UI&amp;quot;, Meiryo, &amp;quot;Arial Unicode MS&amp;quot;, sans-serif; font-size: 16px; text-align: start; background-color: rgb(247, 247, 247);&quot;&gt;&amp;nbsp;&lt;/span&gt;" style="swimlane;fontStyle=0;childLayout=stackLayout;horizontal=1;startSize=26;fillColor=none;horizontalStack=0;resizeParent=1;resizeParentMax=0;resizeLast=0;collapsible=1;marginBottom=0;whiteSpace=wrap;html=1;" vertex="1" parent="hIYkF4xE6ThtAFWKpGZ0-105">
          <mxGeometry x="20" y="41" width="150" height="78" as="geometry" />
        </mxCell>
        <mxCell id="hIYkF4xE6ThtAFWKpGZ0-36" value="+ version : (string)" style="text;strokeColor=none;fillColor=none;align=left;verticalAlign=top;spacingLeft=4;spacingRight=4;overflow=hidden;rotatable=0;points=[[0,0.5],[1,0.5]];portConstraint=eastwest;whiteSpace=wrap;html=1;" vertex="1" parent="hIYkF4xE6ThtAFWKpGZ0-34">
          <mxGeometry y="26" width="150" height="26" as="geometry" />
        </mxCell>
        <mxCell id="hIYkF4xE6ThtAFWKpGZ0-37" value="+ name: (string)" style="text;strokeColor=none;fillColor=none;align=left;verticalAlign=top;spacingLeft=4;spacingRight=4;overflow=hidden;rotatable=0;points=[[0,0.5],[1,0.5]];portConstraint=eastwest;whiteSpace=wrap;html=1;" vertex="1" parent="hIYkF4xE6ThtAFWKpGZ0-34">
          <mxGeometry y="52" width="150" height="26" as="geometry" />
        </mxCell>
        <mxCell id="hIYkF4xE6ThtAFWKpGZ0-38" value="" style="edgeStyle=orthogonalEdgeStyle;rounded=0;orthogonalLoop=1;jettySize=auto;html=1;entryX=-0.057;entryY=-0.212;entryDx=0;entryDy=0;entryPerimeter=0;" edge="1" parent="hIYkF4xE6ThtAFWKpGZ0-105" source="hIYkF4xE6ThtAFWKpGZ0-36" target="hIYkF4xE6ThtAFWKpGZ0-18">
          <mxGeometry relative="1" as="geometry" />
        </mxCell>
        <mxCell id="hIYkF4xE6ThtAFWKpGZ0-104" value="" style="rounded=0;whiteSpace=wrap;html=1;container=1;strokeColor=default;strokeWidth=3;fillColor=none;" vertex="1" parent="hIYkF4xE6ThtAFWKpGZ0-105">
          <mxGeometry width="440" height="160" as="geometry" />
        </mxCell>
        <mxCell id="hIYkF4xE6ThtAFWKpGZ0-108" value="" style="group" vertex="1" connectable="0" parent="1">
          <mxGeometry x="70" y="-460" width="440" height="160" as="geometry" />
        </mxCell>
        <mxCell id="hIYkF4xE6ThtAFWKpGZ0-47" value="File" style="swimlane;fontStyle=0;childLayout=stackLayout;horizontal=1;startSize=26;fillColor=none;horizontalStack=0;resizeParent=1;resizeParentMax=0;resizeLast=0;collapsible=1;marginBottom=0;whiteSpace=wrap;html=1;" vertex="1" parent="hIYkF4xE6ThtAFWKpGZ0-108">
          <mxGeometry x="270" y="61" width="140" height="52" as="geometry" />
        </mxCell>
        <mxCell id="hIYkF4xE6ThtAFWKpGZ0-64" style="edgeStyle=orthogonalEdgeStyle;rounded=0;orthogonalLoop=1;jettySize=auto;html=1;entryX=0;entryY=0.25;entryDx=0;entryDy=0;" edge="1" parent="hIYkF4xE6ThtAFWKpGZ0-108" source="hIYkF4xE6ThtAFWKpGZ0-50" target="hIYkF4xE6ThtAFWKpGZ0-47">
          <mxGeometry relative="1" as="geometry" />
        </mxCell>
        <mxCell id="hIYkF4xE6ThtAFWKpGZ0-50" value="&lt;span style=&quot;font-weight: var(--cib-type-subtitle2-stronger-font-weight); font-size: 16px; line-height: var(--cib-type-subtitle2-stronger-line-height); font-variation-settings: var(--cib-type-subtitle2-stronger-font-variation-settings); color: rgb(17, 17, 17); font-family: -apple-system, Roboto, SegoeUI, &amp;quot;Segoe UI&amp;quot;, &amp;quot;Helvetica Neue&amp;quot;, Helvetica, &amp;quot;Microsoft YaHei&amp;quot;, &amp;quot;Meiryo UI&amp;quot;, Meiryo, &amp;quot;Arial Unicode MS&amp;quot;, sans-serif; text-align: start; background-color: rgb(247, 247, 247);&quot;&gt;attributes&lt;/span&gt;&lt;span style=&quot;color: rgb(17, 17, 17); font-family: -apple-system, Roboto, SegoeUI, &amp;quot;Segoe UI&amp;quot;, &amp;quot;Helvetica Neue&amp;quot;, Helvetica, &amp;quot;Microsoft YaHei&amp;quot;, &amp;quot;Meiryo UI&amp;quot;, Meiryo, &amp;quot;Arial Unicode MS&amp;quot;, sans-serif; font-size: 16px; text-align: start; background-color: rgb(247, 247, 247);&quot;&gt;&amp;nbsp;&lt;/span&gt;" style="swimlane;fontStyle=0;childLayout=stackLayout;horizontal=1;startSize=26;fillColor=none;horizontalStack=0;resizeParent=1;resizeParentMax=0;resizeLast=0;collapsible=1;marginBottom=0;whiteSpace=wrap;html=1;" vertex="1" parent="hIYkF4xE6ThtAFWKpGZ0-108">
          <mxGeometry x="30" y="41" width="150" height="78" as="geometry" />
        </mxCell>
        <mxCell id="hIYkF4xE6ThtAFWKpGZ0-51" value="+ size : (int)" style="text;strokeColor=none;fillColor=none;align=left;verticalAlign=top;spacingLeft=4;spacingRight=4;overflow=hidden;rotatable=0;points=[[0,0.5],[1,0.5]];portConstraint=eastwest;whiteSpace=wrap;html=1;" vertex="1" parent="hIYkF4xE6ThtAFWKpGZ0-50">
          <mxGeometry y="26" width="150" height="26" as="geometry" />
        </mxCell>
        <mxCell id="hIYkF4xE6ThtAFWKpGZ0-52" value="+ name: (string)" style="text;strokeColor=none;fillColor=none;align=left;verticalAlign=top;spacingLeft=4;spacingRight=4;overflow=hidden;rotatable=0;points=[[0,0.5],[1,0.5]];portConstraint=eastwest;whiteSpace=wrap;html=1;" vertex="1" parent="hIYkF4xE6ThtAFWKpGZ0-50">
          <mxGeometry y="52" width="150" height="26" as="geometry" />
        </mxCell>
        <mxCell id="hIYkF4xE6ThtAFWKpGZ0-107" value="" style="rounded=0;whiteSpace=wrap;html=1;container=1;strokeColor=default;strokeWidth=3;fillColor=none;" vertex="1" parent="hIYkF4xE6ThtAFWKpGZ0-108">
          <mxGeometry width="440" height="160" as="geometry" />
        </mxCell>
        <mxCell id="hIYkF4xE6ThtAFWKpGZ0-109" value="" style="rounded=0;whiteSpace=wrap;html=1;container=1;strokeColor=default;strokeWidth=3;fillColor=none;" vertex="1" parent="1">
          <mxGeometry x="170" y="-190" width="510" height="160" as="geometry" />
        </mxCell>
        <mxCell id="hIYkF4xE6ThtAFWKpGZ0-54" value="Project&amp;nbsp;" style="swimlane;fontStyle=0;childLayout=stackLayout;horizontal=1;startSize=26;fillColor=none;horizontalStack=0;resizeParent=1;resizeParentMax=0;resizeLast=0;collapsible=1;marginBottom=0;whiteSpace=wrap;html=1;" vertex="1" parent="hIYkF4xE6ThtAFWKpGZ0-109">
          <mxGeometry x="290" y="50" width="180" height="78" as="geometry" />
        </mxCell>
        <mxCell id="hIYkF4xE6ThtAFWKpGZ0-55" value="+ method: createFile() (void)" style="text;strokeColor=none;fillColor=none;align=left;verticalAlign=top;spacingLeft=4;spacingRight=4;overflow=hidden;rotatable=0;points=[[0,0.5],[1,0.5]];portConstraint=eastwest;whiteSpace=wrap;html=1;" vertex="1" parent="hIYkF4xE6ThtAFWKpGZ0-54">
          <mxGeometry y="26" width="180" height="26" as="geometry" />
        </mxCell>
        <mxCell id="hIYkF4xE6ThtAFWKpGZ0-56" value="+ method: deleteFile() (void)" style="text;strokeColor=none;fillColor=none;align=left;verticalAlign=top;spacingLeft=4;spacingRight=4;overflow=hidden;rotatable=0;points=[[0,0.5],[1,0.5]];portConstraint=eastwest;whiteSpace=wrap;html=1;" vertex="1" parent="hIYkF4xE6ThtAFWKpGZ0-54">
          <mxGeometry y="52" width="180" height="26" as="geometry" />
        </mxCell>
        <mxCell id="hIYkF4xE6ThtAFWKpGZ0-57" value="&lt;span style=&quot;font-weight: var(--cib-type-subtitle2-stronger-font-weight); font-size: 16px; line-height: var(--cib-type-subtitle2-stronger-line-height); font-variation-settings: var(--cib-type-subtitle2-stronger-font-variation-settings); color: rgb(17, 17, 17); font-family: -apple-system, Roboto, SegoeUI, &amp;quot;Segoe UI&amp;quot;, &amp;quot;Helvetica Neue&amp;quot;, Helvetica, &amp;quot;Microsoft YaHei&amp;quot;, &amp;quot;Meiryo UI&amp;quot;, Meiryo, &amp;quot;Arial Unicode MS&amp;quot;, sans-serif; text-align: start; background-color: rgb(247, 247, 247);&quot;&gt;attributes&lt;/span&gt;&lt;span style=&quot;color: rgb(17, 17, 17); font-family: -apple-system, Roboto, SegoeUI, &amp;quot;Segoe UI&amp;quot;, &amp;quot;Helvetica Neue&amp;quot;, Helvetica, &amp;quot;Microsoft YaHei&amp;quot;, &amp;quot;Meiryo UI&amp;quot;, Meiryo, &amp;quot;Arial Unicode MS&amp;quot;, sans-serif; font-size: 16px; text-align: start; background-color: rgb(247, 247, 247);&quot;&gt;&amp;nbsp;&lt;/span&gt;" style="swimlane;fontStyle=0;childLayout=stackLayout;horizontal=1;startSize=26;fillColor=none;horizontalStack=0;resizeParent=1;resizeParentMax=0;resizeLast=0;collapsible=1;marginBottom=0;whiteSpace=wrap;html=1;" vertex="1" parent="hIYkF4xE6ThtAFWKpGZ0-109">
          <mxGeometry x="40" y="50" width="150" height="52" as="geometry" />
        </mxCell>
        <mxCell id="hIYkF4xE6ThtAFWKpGZ0-59" value="+ name: (string)" style="text;strokeColor=none;fillColor=none;align=left;verticalAlign=top;spacingLeft=4;spacingRight=4;overflow=hidden;rotatable=0;points=[[0,0.5],[1,0.5]];portConstraint=eastwest;whiteSpace=wrap;html=1;" vertex="1" parent="hIYkF4xE6ThtAFWKpGZ0-57">
          <mxGeometry y="26" width="150" height="26" as="geometry" />
        </mxCell>
        <mxCell id="hIYkF4xE6ThtAFWKpGZ0-60" value="" style="edgeStyle=orthogonalEdgeStyle;rounded=0;orthogonalLoop=1;jettySize=auto;html=1;entryX=-0.057;entryY=-0.212;entryDx=0;entryDy=0;entryPerimeter=0;" edge="1" parent="hIYkF4xE6ThtAFWKpGZ0-109" target="hIYkF4xE6ThtAFWKpGZ0-55">
          <mxGeometry relative="1" as="geometry">
            <mxPoint x="190" y="89" as="sourcePoint" />
          </mxGeometry>
        </mxCell>
        <mxCell id="hIYkF4xE6ThtAFWKpGZ0-111" value="" style="group" vertex="1" connectable="0" parent="1">
          <mxGeometry x="160" y="280" width="520" height="160" as="geometry" />
        </mxCell>
        <mxCell id="hIYkF4xE6ThtAFWKpGZ0-65" value="Debugger" style="swimlane;fontStyle=0;childLayout=stackLayout;horizontal=1;startSize=26;fillColor=none;horizontalStack=0;resizeParent=1;resizeParentMax=0;resizeLast=0;collapsible=1;marginBottom=0;whiteSpace=wrap;html=1;" vertex="1" parent="hIYkF4xE6ThtAFWKpGZ0-111">
          <mxGeometry x="300" y="60" width="190" height="52" as="geometry" />
        </mxCell>
        <mxCell id="hIYkF4xE6ThtAFWKpGZ0-66" value="+ method: debug () (void)" style="text;strokeColor=none;fillColor=none;align=left;verticalAlign=top;spacingLeft=4;spacingRight=4;overflow=hidden;rotatable=0;points=[[0,0.5],[1,0.5]];portConstraint=eastwest;whiteSpace=wrap;html=1;" vertex="1" parent="hIYkF4xE6ThtAFWKpGZ0-65">
          <mxGeometry y="26" width="190" height="26" as="geometry" />
        </mxCell>
        <mxCell id="hIYkF4xE6ThtAFWKpGZ0-68" value="&lt;span style=&quot;font-weight: var(--cib-type-subtitle2-stronger-font-weight); font-size: 16px; line-height: var(--cib-type-subtitle2-stronger-line-height); font-variation-settings: var(--cib-type-subtitle2-stronger-font-variation-settings); color: rgb(17, 17, 17); font-family: -apple-system, Roboto, SegoeUI, &amp;quot;Segoe UI&amp;quot;, &amp;quot;Helvetica Neue&amp;quot;, Helvetica, &amp;quot;Microsoft YaHei&amp;quot;, &amp;quot;Meiryo UI&amp;quot;, Meiryo, &amp;quot;Arial Unicode MS&amp;quot;, sans-serif; text-align: start; background-color: rgb(247, 247, 247);&quot;&gt;attributes&lt;/span&gt;&lt;span style=&quot;color: rgb(17, 17, 17); font-family: -apple-system, Roboto, SegoeUI, &amp;quot;Segoe UI&amp;quot;, &amp;quot;Helvetica Neue&amp;quot;, Helvetica, &amp;quot;Microsoft YaHei&amp;quot;, &amp;quot;Meiryo UI&amp;quot;, Meiryo, &amp;quot;Arial Unicode MS&amp;quot;, sans-serif; font-size: 16px; text-align: start; background-color: rgb(247, 247, 247);&quot;&gt;&amp;nbsp;&lt;/span&gt;" style="swimlane;fontStyle=0;childLayout=stackLayout;horizontal=1;startSize=26;fillColor=none;horizontalStack=0;resizeParent=1;resizeParentMax=0;resizeLast=0;collapsible=1;marginBottom=0;whiteSpace=wrap;html=1;" vertex="1" parent="hIYkF4xE6ThtAFWKpGZ0-111">
          <mxGeometry x="20" y="60" width="150" height="52" as="geometry" />
        </mxCell>
        <mxCell id="hIYkF4xE6ThtAFWKpGZ0-70" value="+ name: (string)" style="text;strokeColor=none;fillColor=none;align=left;verticalAlign=top;spacingLeft=4;spacingRight=4;overflow=hidden;rotatable=0;points=[[0,0.5],[1,0.5]];portConstraint=eastwest;whiteSpace=wrap;html=1;" vertex="1" parent="hIYkF4xE6ThtAFWKpGZ0-68">
          <mxGeometry y="26" width="150" height="26" as="geometry" />
        </mxCell>
        <mxCell id="hIYkF4xE6ThtAFWKpGZ0-72" style="edgeStyle=orthogonalEdgeStyle;rounded=0;orthogonalLoop=1;jettySize=auto;html=1;entryX=0;entryY=0.192;entryDx=0;entryDy=0;entryPerimeter=0;" edge="1" parent="hIYkF4xE6ThtAFWKpGZ0-111" source="hIYkF4xE6ThtAFWKpGZ0-68" target="hIYkF4xE6ThtAFWKpGZ0-66">
          <mxGeometry relative="1" as="geometry" />
        </mxCell>
        <mxCell id="hIYkF4xE6ThtAFWKpGZ0-110" value="" style="rounded=0;whiteSpace=wrap;html=1;container=1;strokeColor=default;strokeWidth=3;fillColor=none;" vertex="1" parent="hIYkF4xE6ThtAFWKpGZ0-111">
          <mxGeometry width="520" height="160" as="geometry" />
        </mxCell>
        <mxCell id="hIYkF4xE6ThtAFWKpGZ0-115" value="" style="group" vertex="1" connectable="0" parent="1">
          <mxGeometry x="1220" y="380" width="440" height="160" as="geometry" />
        </mxCell>
        <mxCell id="hIYkF4xE6ThtAFWKpGZ0-73" value="Compiler" style="swimlane;fontStyle=0;childLayout=stackLayout;horizontal=1;startSize=26;fillColor=none;horizontalStack=0;resizeParent=1;resizeParentMax=0;resizeLast=0;collapsible=1;marginBottom=0;whiteSpace=wrap;html=1;" vertex="1" parent="hIYkF4xE6ThtAFWKpGZ0-115">
          <mxGeometry x="270" y="60" width="160" height="52" as="geometry" />
        </mxCell>
        <mxCell id="hIYkF4xE6ThtAFWKpGZ0-74" value="+ method: compile () (void)" style="text;strokeColor=none;fillColor=none;align=left;verticalAlign=top;spacingLeft=4;spacingRight=4;overflow=hidden;rotatable=0;points=[[0,0.5],[1,0.5]];portConstraint=eastwest;whiteSpace=wrap;html=1;" vertex="1" parent="hIYkF4xE6ThtAFWKpGZ0-73">
          <mxGeometry y="26" width="160" height="26" as="geometry" />
        </mxCell>
        <mxCell id="hIYkF4xE6ThtAFWKpGZ0-76" value="&lt;span style=&quot;font-weight: var(--cib-type-subtitle2-stronger-font-weight); font-size: 16px; line-height: var(--cib-type-subtitle2-stronger-line-height); font-variation-settings: var(--cib-type-subtitle2-stronger-font-variation-settings); color: rgb(17, 17, 17); font-family: -apple-system, Roboto, SegoeUI, &amp;quot;Segoe UI&amp;quot;, &amp;quot;Helvetica Neue&amp;quot;, Helvetica, &amp;quot;Microsoft YaHei&amp;quot;, &amp;quot;Meiryo UI&amp;quot;, Meiryo, &amp;quot;Arial Unicode MS&amp;quot;, sans-serif; text-align: start; background-color: rgb(247, 247, 247);&quot;&gt;attributes&lt;/span&gt;&lt;span style=&quot;color: rgb(17, 17, 17); font-family: -apple-system, Roboto, SegoeUI, &amp;quot;Segoe UI&amp;quot;, &amp;quot;Helvetica Neue&amp;quot;, Helvetica, &amp;quot;Microsoft YaHei&amp;quot;, &amp;quot;Meiryo UI&amp;quot;, Meiryo, &amp;quot;Arial Unicode MS&amp;quot;, sans-serif; font-size: 16px; text-align: start; background-color: rgb(247, 247, 247);&quot;&gt;&amp;nbsp;&lt;/span&gt;" style="swimlane;fontStyle=0;childLayout=stackLayout;horizontal=1;startSize=26;fillColor=none;horizontalStack=0;resizeParent=1;resizeParentMax=0;resizeLast=0;collapsible=1;marginBottom=0;whiteSpace=wrap;html=1;" vertex="1" parent="hIYkF4xE6ThtAFWKpGZ0-115">
          <mxGeometry x="20" y="60" width="150" height="52" as="geometry" />
        </mxCell>
        <mxCell id="hIYkF4xE6ThtAFWKpGZ0-78" value="+ name: (string)" style="text;strokeColor=none;fillColor=none;align=left;verticalAlign=top;spacingLeft=4;spacingRight=4;overflow=hidden;rotatable=0;points=[[0,0.5],[1,0.5]];portConstraint=eastwest;whiteSpace=wrap;html=1;" vertex="1" parent="hIYkF4xE6ThtAFWKpGZ0-76">
          <mxGeometry y="26" width="150" height="26" as="geometry" />
        </mxCell>
        <mxCell id="hIYkF4xE6ThtAFWKpGZ0-112" value="" style="rounded=0;whiteSpace=wrap;html=1;container=1;strokeColor=default;strokeWidth=3;fillColor=none;" vertex="1" parent="hIYkF4xE6ThtAFWKpGZ0-115">
          <mxGeometry width="440" height="160" as="geometry" />
        </mxCell>
        <mxCell id="hIYkF4xE6ThtAFWKpGZ0-114" value="" style="edgeStyle=orthogonalEdgeStyle;rounded=0;orthogonalLoop=1;jettySize=auto;html=1;" edge="1" parent="hIYkF4xE6ThtAFWKpGZ0-115" source="hIYkF4xE6ThtAFWKpGZ0-78" target="hIYkF4xE6ThtAFWKpGZ0-74">
          <mxGeometry relative="1" as="geometry" />
        </mxCell>
        <mxCell id="hIYkF4xE6ThtAFWKpGZ0-117" value="" style="group" vertex="1" connectable="0" parent="1">
          <mxGeometry x="120" y="30" width="520" height="160" as="geometry" />
        </mxCell>
        <mxCell id="hIYkF4xE6ThtAFWKpGZ0-80" value="VersionControl" style="swimlane;fontStyle=0;childLayout=stackLayout;horizontal=1;startSize=26;fillColor=none;horizontalStack=0;resizeParent=1;resizeParentMax=0;resizeLast=0;collapsible=1;marginBottom=0;whiteSpace=wrap;html=1;" vertex="1" parent="hIYkF4xE6ThtAFWKpGZ0-117">
          <mxGeometry x="260" y="54" width="230" height="78" as="geometry" />
        </mxCell>
        <mxCell id="hIYkF4xE6ThtAFWKpGZ0-81" value="+ method: commit () (void)" style="text;strokeColor=none;fillColor=none;align=left;verticalAlign=top;spacingLeft=4;spacingRight=4;overflow=hidden;rotatable=0;points=[[0,0.5],[1,0.5]];portConstraint=eastwest;whiteSpace=wrap;html=1;" vertex="1" parent="hIYkF4xE6ThtAFWKpGZ0-80">
          <mxGeometry y="26" width="230" height="26" as="geometry" />
        </mxCell>
        <mxCell id="hIYkF4xE6ThtAFWKpGZ0-82" value="+ method: update () (void)" style="text;strokeColor=none;fillColor=none;align=left;verticalAlign=top;spacingLeft=4;spacingRight=4;overflow=hidden;rotatable=0;points=[[0,0.5],[1,0.5]];portConstraint=eastwest;whiteSpace=wrap;html=1;" vertex="1" parent="hIYkF4xE6ThtAFWKpGZ0-80">
          <mxGeometry y="52" width="230" height="26" as="geometry" />
        </mxCell>
        <mxCell id="hIYkF4xE6ThtAFWKpGZ0-83" value="&lt;span style=&quot;font-weight: var(--cib-type-subtitle2-stronger-font-weight); font-size: 16px; line-height: var(--cib-type-subtitle2-stronger-line-height); font-variation-settings: var(--cib-type-subtitle2-stronger-font-variation-settings); color: rgb(17, 17, 17); font-family: -apple-system, Roboto, SegoeUI, &amp;quot;Segoe UI&amp;quot;, &amp;quot;Helvetica Neue&amp;quot;, Helvetica, &amp;quot;Microsoft YaHei&amp;quot;, &amp;quot;Meiryo UI&amp;quot;, Meiryo, &amp;quot;Arial Unicode MS&amp;quot;, sans-serif; text-align: start; background-color: rgb(247, 247, 247);&quot;&gt;attributes&lt;/span&gt;&lt;span style=&quot;color: rgb(17, 17, 17); font-family: -apple-system, Roboto, SegoeUI, &amp;quot;Segoe UI&amp;quot;, &amp;quot;Helvetica Neue&amp;quot;, Helvetica, &amp;quot;Microsoft YaHei&amp;quot;, &amp;quot;Meiryo UI&amp;quot;, Meiryo, &amp;quot;Arial Unicode MS&amp;quot;, sans-serif; font-size: 16px; text-align: start; background-color: rgb(247, 247, 247);&quot;&gt;&amp;nbsp;&lt;/span&gt;" style="swimlane;fontStyle=0;childLayout=stackLayout;horizontal=1;startSize=26;fillColor=none;horizontalStack=0;resizeParent=1;resizeParentMax=0;resizeLast=0;collapsible=1;marginBottom=0;whiteSpace=wrap;html=1;" vertex="1" parent="hIYkF4xE6ThtAFWKpGZ0-117">
          <mxGeometry x="10" y="54" width="150" height="52" as="geometry" />
        </mxCell>
        <mxCell id="hIYkF4xE6ThtAFWKpGZ0-85" value="+ name: (string)" style="text;strokeColor=none;fillColor=none;align=left;verticalAlign=top;spacingLeft=4;spacingRight=4;overflow=hidden;rotatable=0;points=[[0,0.5],[1,0.5]];portConstraint=eastwest;whiteSpace=wrap;html=1;" vertex="1" parent="hIYkF4xE6ThtAFWKpGZ0-83">
          <mxGeometry y="26" width="150" height="26" as="geometry" />
        </mxCell>
        <mxCell id="hIYkF4xE6ThtAFWKpGZ0-86" value="" style="edgeStyle=orthogonalEdgeStyle;rounded=0;orthogonalLoop=1;jettySize=auto;html=1;entryX=-0.057;entryY=-0.212;entryDx=0;entryDy=0;entryPerimeter=0;" edge="1" parent="hIYkF4xE6ThtAFWKpGZ0-117" target="hIYkF4xE6ThtAFWKpGZ0-81">
          <mxGeometry relative="1" as="geometry">
            <mxPoint x="160" y="93" as="sourcePoint" />
          </mxGeometry>
        </mxCell>
        <mxCell id="hIYkF4xE6ThtAFWKpGZ0-116" value="" style="rounded=0;whiteSpace=wrap;html=1;container=1;strokeColor=default;strokeWidth=3;fillColor=none;" vertex="1" parent="hIYkF4xE6ThtAFWKpGZ0-117">
          <mxGeometry width="520" height="160" as="geometry" />
        </mxCell>
        <mxCell id="hIYkF4xE6ThtAFWKpGZ0-119" value="" style="group" vertex="1" connectable="0" parent="1">
          <mxGeometry x="1120" y="-230" width="570" height="160" as="geometry" />
        </mxCell>
        <mxCell id="hIYkF4xE6ThtAFWKpGZ0-87" value="terminal" style="swimlane;fontStyle=0;childLayout=stackLayout;horizontal=1;startSize=26;fillColor=none;horizontalStack=0;resizeParent=1;resizeParentMax=0;resizeLast=0;collapsible=1;marginBottom=0;whiteSpace=wrap;html=1;" vertex="1" parent="hIYkF4xE6ThtAFWKpGZ0-119">
          <mxGeometry x="270" y="54" width="280" height="52" as="geometry" />
        </mxCell>
        <mxCell id="hIYkF4xE6ThtAFWKpGZ0-88" value="+ method:&amp;nbsp;&lt;span style=&quot;color: rgb(17, 17, 17); font-family: monospace; font-size: 14px; white-space-collapse: preserve; background-color: rgba(0, 0, 0, 0.03);&quot;&gt;executeCommand&lt;/span&gt;() (void)&lt;span style=&quot;white-space: pre;&quot;&gt;&#x9;&lt;/span&gt;" style="text;strokeColor=none;fillColor=none;align=left;verticalAlign=top;spacingLeft=4;spacingRight=4;overflow=hidden;rotatable=0;points=[[0,0.5],[1,0.5]];portConstraint=eastwest;whiteSpace=wrap;html=1;" vertex="1" parent="hIYkF4xE6ThtAFWKpGZ0-87">
          <mxGeometry y="26" width="280" height="26" as="geometry" />
        </mxCell>
        <mxCell id="hIYkF4xE6ThtAFWKpGZ0-90" value="&lt;span style=&quot;font-weight: var(--cib-type-subtitle2-stronger-font-weight); font-size: 16px; line-height: var(--cib-type-subtitle2-stronger-line-height); font-variation-settings: var(--cib-type-subtitle2-stronger-font-variation-settings); color: rgb(17, 17, 17); font-family: -apple-system, Roboto, SegoeUI, &amp;quot;Segoe UI&amp;quot;, &amp;quot;Helvetica Neue&amp;quot;, Helvetica, &amp;quot;Microsoft YaHei&amp;quot;, &amp;quot;Meiryo UI&amp;quot;, Meiryo, &amp;quot;Arial Unicode MS&amp;quot;, sans-serif; text-align: start; background-color: rgb(247, 247, 247);&quot;&gt;attributes&lt;/span&gt;&lt;span style=&quot;color: rgb(17, 17, 17); font-family: -apple-system, Roboto, SegoeUI, &amp;quot;Segoe UI&amp;quot;, &amp;quot;Helvetica Neue&amp;quot;, Helvetica, &amp;quot;Microsoft YaHei&amp;quot;, &amp;quot;Meiryo UI&amp;quot;, Meiryo, &amp;quot;Arial Unicode MS&amp;quot;, sans-serif; font-size: 16px; text-align: start; background-color: rgb(247, 247, 247);&quot;&gt;&amp;nbsp;&lt;/span&gt;" style="swimlane;fontStyle=0;childLayout=stackLayout;horizontal=1;startSize=26;fillColor=none;horizontalStack=0;resizeParent=1;resizeParentMax=0;resizeLast=0;collapsible=1;marginBottom=0;whiteSpace=wrap;html=1;" vertex="1" parent="hIYkF4xE6ThtAFWKpGZ0-119">
          <mxGeometry x="20" y="54" width="150" height="52" as="geometry" />
        </mxCell>
        <mxCell id="hIYkF4xE6ThtAFWKpGZ0-92" value="+ name: (string)" style="text;strokeColor=none;fillColor=none;align=left;verticalAlign=top;spacingLeft=4;spacingRight=4;overflow=hidden;rotatable=0;points=[[0,0.5],[1,0.5]];portConstraint=eastwest;whiteSpace=wrap;html=1;" vertex="1" parent="hIYkF4xE6ThtAFWKpGZ0-90">
          <mxGeometry y="26" width="150" height="26" as="geometry" />
        </mxCell>
        <mxCell id="hIYkF4xE6ThtAFWKpGZ0-93" value="" style="edgeStyle=orthogonalEdgeStyle;rounded=0;orthogonalLoop=1;jettySize=auto;html=1;entryX=-0.057;entryY=-0.212;entryDx=0;entryDy=0;entryPerimeter=0;" edge="1" parent="hIYkF4xE6ThtAFWKpGZ0-119" target="hIYkF4xE6ThtAFWKpGZ0-88">
          <mxGeometry relative="1" as="geometry">
            <mxPoint x="170" y="93" as="sourcePoint" />
          </mxGeometry>
        </mxCell>
        <mxCell id="hIYkF4xE6ThtAFWKpGZ0-118" value="" style="rounded=0;whiteSpace=wrap;html=1;container=1;strokeColor=default;strokeWidth=3;fillColor=none;" vertex="1" parent="hIYkF4xE6ThtAFWKpGZ0-119">
          <mxGeometry width="570" height="160" as="geometry" />
        </mxCell>
        <mxCell id="hIYkF4xE6ThtAFWKpGZ0-122" value="" style="group" vertex="1" connectable="0" parent="1">
          <mxGeometry x="600" y="-570" width="500" height="160" as="geometry" />
        </mxCell>
        <mxCell id="hIYkF4xE6ThtAFWKpGZ0-95" value="plugin" style="swimlane;fontStyle=0;childLayout=stackLayout;horizontal=1;startSize=26;fillColor=none;horizontalStack=0;resizeParent=1;resizeParentMax=0;resizeLast=0;collapsible=1;marginBottom=0;whiteSpace=wrap;html=1;" vertex="1" parent="hIYkF4xE6ThtAFWKpGZ0-122">
          <mxGeometry x="275" y="54" width="180" height="78" as="geometry" />
        </mxCell>
        <mxCell id="hIYkF4xE6ThtAFWKpGZ0-96" value="+ method: load() (void)" style="text;strokeColor=none;fillColor=none;align=left;verticalAlign=top;spacingLeft=4;spacingRight=4;overflow=hidden;rotatable=0;points=[[0,0.5],[1,0.5]];portConstraint=eastwest;whiteSpace=wrap;html=1;" vertex="1" parent="hIYkF4xE6ThtAFWKpGZ0-95">
          <mxGeometry y="26" width="180" height="26" as="geometry" />
        </mxCell>
        <mxCell id="hIYkF4xE6ThtAFWKpGZ0-97" value="+ method: unload () (void)" style="text;strokeColor=none;fillColor=none;align=left;verticalAlign=top;spacingLeft=4;spacingRight=4;overflow=hidden;rotatable=0;points=[[0,0.5],[1,0.5]];portConstraint=eastwest;whiteSpace=wrap;html=1;" vertex="1" parent="hIYkF4xE6ThtAFWKpGZ0-95">
          <mxGeometry y="52" width="180" height="26" as="geometry" />
        </mxCell>
        <mxCell id="hIYkF4xE6ThtAFWKpGZ0-98" value="&lt;span style=&quot;font-weight: var(--cib-type-subtitle2-stronger-font-weight); font-size: 16px; line-height: var(--cib-type-subtitle2-stronger-line-height); font-variation-settings: var(--cib-type-subtitle2-stronger-font-variation-settings); color: rgb(17, 17, 17); font-family: -apple-system, Roboto, SegoeUI, &amp;quot;Segoe UI&amp;quot;, &amp;quot;Helvetica Neue&amp;quot;, Helvetica, &amp;quot;Microsoft YaHei&amp;quot;, &amp;quot;Meiryo UI&amp;quot;, Meiryo, &amp;quot;Arial Unicode MS&amp;quot;, sans-serif; text-align: start; background-color: rgb(247, 247, 247);&quot;&gt;attributes&lt;/span&gt;&lt;span style=&quot;color: rgb(17, 17, 17); font-family: -apple-system, Roboto, SegoeUI, &amp;quot;Segoe UI&amp;quot;, &amp;quot;Helvetica Neue&amp;quot;, Helvetica, &amp;quot;Microsoft YaHei&amp;quot;, &amp;quot;Meiryo UI&amp;quot;, Meiryo, &amp;quot;Arial Unicode MS&amp;quot;, sans-serif; font-size: 16px; text-align: start; background-color: rgb(247, 247, 247);&quot;&gt;&amp;nbsp;&lt;/span&gt;" style="swimlane;fontStyle=0;childLayout=stackLayout;horizontal=1;startSize=26;fillColor=none;horizontalStack=0;resizeParent=1;resizeParentMax=0;resizeLast=0;collapsible=1;marginBottom=0;whiteSpace=wrap;html=1;" vertex="1" parent="hIYkF4xE6ThtAFWKpGZ0-122">
          <mxGeometry x="25" y="54" width="150" height="52" as="geometry" />
        </mxCell>
        <mxCell id="hIYkF4xE6ThtAFWKpGZ0-100" value="+ name: (string)" style="text;strokeColor=none;fillColor=none;align=left;verticalAlign=top;spacingLeft=4;spacingRight=4;overflow=hidden;rotatable=0;points=[[0,0.5],[1,0.5]];portConstraint=eastwest;whiteSpace=wrap;html=1;" vertex="1" parent="hIYkF4xE6ThtAFWKpGZ0-98">
          <mxGeometry y="26" width="150" height="26" as="geometry" />
        </mxCell>
        <mxCell id="hIYkF4xE6ThtAFWKpGZ0-101" value="" style="edgeStyle=orthogonalEdgeStyle;rounded=0;orthogonalLoop=1;jettySize=auto;html=1;entryX=-0.057;entryY=-0.212;entryDx=0;entryDy=0;entryPerimeter=0;" edge="1" parent="hIYkF4xE6ThtAFWKpGZ0-122" target="hIYkF4xE6ThtAFWKpGZ0-96">
          <mxGeometry relative="1" as="geometry">
            <mxPoint x="175" y="93" as="sourcePoint" />
          </mxGeometry>
        </mxCell>
        <mxCell id="hIYkF4xE6ThtAFWKpGZ0-120" value="" style="rounded=0;whiteSpace=wrap;html=1;container=1;strokeColor=default;strokeWidth=3;fillColor=none;" vertex="1" parent="hIYkF4xE6ThtAFWKpGZ0-122">
          <mxGeometry width="500" height="160" as="geometry" />
        </mxCell>
        <mxCell id="hIYkF4xE6ThtAFWKpGZ0-123" value="1" style="endArrow=open;html=1;endSize=12;startArrow=diamondThin;startSize=14;startFill=1;edgeStyle=orthogonalEdgeStyle;align=left;verticalAlign=bottom;rounded=0;" edge="1" parent="1" source="hIYkF4xE6ThtAFWKpGZ0-110">
          <mxGeometry x="-1" y="3" relative="1" as="geometry">
            <mxPoint x="690" y="250" as="sourcePoint" />
            <mxPoint x="890" y="190" as="targetPoint" />
          </mxGeometry>
        </mxCell>
        <mxCell id="hIYkF4xE6ThtAFWKpGZ0-126" value="1" style="endArrow=open;html=1;endSize=12;startArrow=diamondThin;startSize=14;startFill=1;edgeStyle=orthogonalEdgeStyle;align=left;verticalAlign=bottom;rounded=0;exitX=0;exitY=0.75;exitDx=0;exitDy=0;entryX=0.5;entryY=0;entryDx=0;entryDy=0;" edge="1" parent="1" source="hIYkF4xE6ThtAFWKpGZ0-102" target="hIYkF4xE6ThtAFWKpGZ0-104">
          <mxGeometry x="-1" y="3" relative="1" as="geometry">
            <mxPoint x="730" y="190" as="sourcePoint" />
            <mxPoint x="890" y="190" as="targetPoint" />
          </mxGeometry>
        </mxCell>
        <mxCell id="hIYkF4xE6ThtAFWKpGZ0-128" value="1" style="endArrow=open;html=1;endSize=12;startArrow=diamondThin;startSize=14;startFill=1;edgeStyle=orthogonalEdgeStyle;align=left;verticalAlign=bottom;rounded=0;exitX=0.5;exitY=0;exitDx=0;exitDy=0;" edge="1" parent="1" source="hIYkF4xE6ThtAFWKpGZ0-112">
          <mxGeometry x="-1" y="3" relative="1" as="geometry">
            <mxPoint x="730" y="190" as="sourcePoint" />
            <mxPoint x="890" y="190" as="targetPoint" />
          </mxGeometry>
        </mxCell>
        <mxCell id="hIYkF4xE6ThtAFWKpGZ0-130" value="1" style="endArrow=open;html=1;endSize=12;startArrow=diamondThin;startSize=14;startFill=1;edgeStyle=orthogonalEdgeStyle;align=left;verticalAlign=bottom;rounded=0;exitX=1.002;exitY=0.616;exitDx=0;exitDy=0;exitPerimeter=0;entryX=0;entryY=0.5;entryDx=0;entryDy=0;" edge="1" parent="1" source="hIYkF4xE6ThtAFWKpGZ0-116" target="hIYkF4xE6ThtAFWKpGZ0-104">
          <mxGeometry x="-1" y="3" relative="1" as="geometry">
            <mxPoint x="730" y="190" as="sourcePoint" />
            <mxPoint x="890" y="190" as="targetPoint" />
          </mxGeometry>
        </mxCell>
        <mxCell id="hIYkF4xE6ThtAFWKpGZ0-131" value="1" style="endArrow=open;html=1;endSize=12;startArrow=diamondThin;startSize=14;startFill=1;edgeStyle=orthogonalEdgeStyle;align=left;verticalAlign=bottom;rounded=0;exitX=0.5;exitY=1;exitDx=0;exitDy=0;entryX=1;entryY=0.5;entryDx=0;entryDy=0;" edge="1" parent="1" source="hIYkF4xE6ThtAFWKpGZ0-118" target="hIYkF4xE6ThtAFWKpGZ0-104">
          <mxGeometry x="-1" y="3" relative="1" as="geometry">
            <mxPoint x="730" y="260" as="sourcePoint" />
            <mxPoint x="890" y="260" as="targetPoint" />
          </mxGeometry>
        </mxCell>
        <mxCell id="hIYkF4xE6ThtAFWKpGZ0-132" value="1" style="endArrow=open;html=1;endSize=12;startArrow=diamondThin;startSize=14;startFill=1;edgeStyle=orthogonalEdgeStyle;align=left;verticalAlign=bottom;rounded=0;exitX=0.5;exitY=1;exitDx=0;exitDy=0;entryX=0.25;entryY=0;entryDx=0;entryDy=0;" edge="1" parent="1" source="hIYkF4xE6ThtAFWKpGZ0-120" target="hIYkF4xE6ThtAFWKpGZ0-104">
          <mxGeometry x="-1" y="3" relative="1" as="geometry">
            <mxPoint x="730" y="110" as="sourcePoint" />
            <mxPoint x="890" y="110" as="targetPoint" />
          </mxGeometry>
        </mxCell>
        <mxCell id="hIYkF4xE6ThtAFWKpGZ0-135" value="1" style="endArrow=open;html=1;endSize=12;startArrow=diamondThin;startSize=14;startFill=0;edgeStyle=orthogonalEdgeStyle;align=left;verticalAlign=bottom;rounded=0;entryX=1;entryY=0.5;entryDx=0;entryDy=0;exitX=0;exitY=0;exitDx=0;exitDy=0;" edge="1" parent="1" source="hIYkF4xE6ThtAFWKpGZ0-104" target="hIYkF4xE6ThtAFWKpGZ0-109">
          <mxGeometry x="-1" y="3" relative="1" as="geometry">
            <mxPoint x="780" y="110" as="sourcePoint" />
            <mxPoint x="940" y="110" as="targetPoint" />
          </mxGeometry>
        </mxCell>
        <mxCell id="hIYkF4xE6ThtAFWKpGZ0-136" style="edgeStyle=orthogonalEdgeStyle;rounded=0;orthogonalLoop=1;jettySize=auto;html=1;exitX=0.75;exitY=0;exitDx=0;exitDy=0;entryX=1;entryY=0.75;entryDx=0;entryDy=0;" edge="1" parent="1" source="hIYkF4xE6ThtAFWKpGZ0-104" target="hIYkF4xE6ThtAFWKpGZ0-107">
          <mxGeometry relative="1" as="geometry" />
        </mxCell>
        <mxCell id="hIYkF4xE6ThtAFWKpGZ0-137" value="Use" style="endArrow=open;endSize=12;dashed=1;html=1;rounded=0;entryX=0.5;entryY=0;entryDx=0;entryDy=0;exitX=0.25;exitY=1;exitDx=0;exitDy=0;" edge="1" parent="1" source="hIYkF4xE6ThtAFWKpGZ0-104" target="hIYkF4xE6ThtAFWKpGZ0-110">
          <mxGeometry width="160" relative="1" as="geometry">
            <mxPoint x="660" y="290" as="sourcePoint" />
            <mxPoint x="820" y="290" as="targetPoint" />
          </mxGeometry>
        </mxCell>
        <mxCell id="hIYkF4xE6ThtAFWKpGZ0-138" value="1" style="endArrow=open;html=1;endSize=12;startArrow=diamondThin;startSize=14;startFill=1;edgeStyle=orthogonalEdgeStyle;align=left;verticalAlign=bottom;rounded=0;entryX=0;entryY=0.5;entryDx=0;entryDy=0;exitX=1;exitY=0.5;exitDx=0;exitDy=0;" edge="1" parent="1" source="hIYkF4xE6ThtAFWKpGZ0-107" target="hIYkF4xE6ThtAFWKpGZ0-102">
          <mxGeometry x="-1" y="3" relative="1" as="geometry">
            <mxPoint x="560" y="-360" as="sourcePoint" />
            <mxPoint x="720" y="-360" as="targetPoint" />
          </mxGeometry>
        </mxCell>
        <mxCell id="hIYkF4xE6ThtAFWKpGZ0-139" value="1" style="endArrow=open;html=1;endSize=12;startArrow=diamondThin;startSize=14;startFill=1;edgeStyle=orthogonalEdgeStyle;align=left;verticalAlign=bottom;rounded=0;entryX=0.75;entryY=1;entryDx=0;entryDy=0;exitX=0.75;exitY=0;exitDx=0;exitDy=0;" edge="1" parent="1" source="hIYkF4xE6ThtAFWKpGZ0-109" target="hIYkF4xE6ThtAFWKpGZ0-107">
          <mxGeometry x="-1" y="3" relative="1" as="geometry">
            <mxPoint x="680" y="130" as="sourcePoint" />
            <mxPoint x="840" y="130" as="targetPoint" />
          </mxGeometry>
        </mxCell>
        <mxCell id="hIYkF4xE6ThtAFWKpGZ0-140" value="" style="endArrow=open;endFill=1;endSize=12;html=1;rounded=0;exitX=0.75;exitY=1;exitDx=0;exitDy=0;entryX=0.75;entryY=1;entryDx=0;entryDy=0;" edge="1" parent="1" source="hIYkF4xE6ThtAFWKpGZ0-110" target="hIYkF4xE6ThtAFWKpGZ0-118">
          <mxGeometry width="160" relative="1" as="geometry">
            <mxPoint x="700" y="640" as="sourcePoint" />
            <mxPoint x="860" y="640" as="targetPoint" />
            <Array as="points">
              <mxPoint x="1060" y="570" />
            </Array>
          </mxGeometry>
        </mxCell>
        <mxCell id="hIYkF4xE6ThtAFWKpGZ0-141" value="1" style="endArrow=open;html=1;endSize=12;startArrow=diamondThin;startSize=14;startFill=1;edgeStyle=orthogonalEdgeStyle;align=left;verticalAlign=bottom;rounded=0;exitX=0.5;exitY=1;exitDx=0;exitDy=0;entryX=0;entryY=0.5;entryDx=0;entryDy=0;" edge="1" parent="1" source="hIYkF4xE6ThtAFWKpGZ0-112" target="hIYkF4xE6ThtAFWKpGZ0-107">
          <mxGeometry x="-1" y="3" relative="1" as="geometry">
            <mxPoint x="680" y="130" as="sourcePoint" />
            <mxPoint x="840" y="130" as="targetPoint" />
          </mxGeometry>
        </mxCell>
        <mxCell id="hIYkF4xE6ThtAFWKpGZ0-143" value="" style="endArrow=open;endFill=1;endSize=12;html=1;rounded=0;exitX=0.25;exitY=0;exitDx=0;exitDy=0;entryX=0.25;entryY=1;entryDx=0;entryDy=0;" edge="1" parent="1" source="hIYkF4xE6ThtAFWKpGZ0-110" target="hIYkF4xE6ThtAFWKpGZ0-116">
          <mxGeometry width="160" relative="1" as="geometry">
            <mxPoint x="680" y="130" as="sourcePoint" />
            <mxPoint x="840" y="130" as="targetPoint" />
          </mxGeometry>
        </mxCell>
        <mxCell id="hIYkF4xE6ThtAFWKpGZ0-145" value="1" style="endArrow=open;html=1;endSize=12;startArrow=diamondThin;startSize=14;startFill=1;edgeStyle=orthogonalEdgeStyle;align=left;verticalAlign=bottom;rounded=0;entryX=0.25;entryY=0;entryDx=0;entryDy=0;exitX=0.25;exitY=0;exitDx=0;exitDy=0;" edge="1" parent="1" source="hIYkF4xE6ThtAFWKpGZ0-107" target="hIYkF4xE6ThtAFWKpGZ0-120">
          <mxGeometry x="-1" y="3" relative="1" as="geometry">
            <mxPoint x="210" y="-620" as="sourcePoint" />
            <mxPoint x="380" y="-530" as="targetPoint" />
            <Array as="points">
              <mxPoint x="210" y="-460" />
              <mxPoint x="210" y="-720" />
              <mxPoint x="725" y="-720" />
            </Array>
          </mxGeometry>
        </mxCell>
        <mxCell id="hIYkF4xE6ThtAFWKpGZ0-146" value="1" style="endArrow=open;html=1;endSize=12;startArrow=diamondThin;startSize=14;startFill=1;edgeStyle=orthogonalEdgeStyle;align=left;verticalAlign=bottom;rounded=0;entryX=0.5;entryY=0;entryDx=0;entryDy=0;exitX=1;exitY=0.25;exitDx=0;exitDy=0;" edge="1" parent="1" source="hIYkF4xE6ThtAFWKpGZ0-120" target="hIYkF4xE6ThtAFWKpGZ0-118">
          <mxGeometry x="-1" y="3" relative="1" as="geometry">
            <mxPoint x="680" y="-50" as="sourcePoint" />
            <mxPoint x="840" y="-50" as="targetPoint" />
          </mxGeometry>
        </mxCell>
        <mxCell id="hIYkF4xE6ThtAFWKpGZ0-147" value="1" style="endArrow=open;html=1;endSize=12;startArrow=diamondThin;startSize=14;startFill=1;edgeStyle=orthogonalEdgeStyle;align=left;verticalAlign=bottom;rounded=0;entryX=0.75;entryY=0;entryDx=0;entryDy=0;exitX=0.75;exitY=0;exitDx=0;exitDy=0;" edge="1" parent="1" source="hIYkF4xE6ThtAFWKpGZ0-120" target="hIYkF4xE6ThtAFWKpGZ0-112">
          <mxGeometry x="-1" y="3" relative="1" as="geometry">
            <mxPoint x="910" y="-710" as="sourcePoint" />
            <mxPoint x="840" y="-50" as="targetPoint" />
            <Array as="points">
              <mxPoint x="970" y="-570" />
              <mxPoint x="970" y="-660" />
              <mxPoint x="1620" y="-660" />
              <mxPoint x="1620" y="380" />
            </Array>
          </mxGeometry>
        </mxCell>
      </root>
    </mxGraphModel>
  </diagram>
</mxfile>
